<svg width="208" height="150" viewBox="0 0 208 150" fill="none" xmlns="http://www.w3.org/2000/svg">
<g opacity="0.4">
<path d="M58.8379 137.113C44.798 135.092 31.572 129.451 20.7538 120.67C6.78658 109.332 -5.73695 90.8356 3.88461 63.3502C22.1152 11.2695 104.843 2.62717 142.511 14.6451C202.372 33.7424 229.797 111.033 147.53 136.077C127.075 142.301 81.1187 140.318 58.8379 137.113Z" fill="#ECF3FB"/>
</g>
<path d="M204.003 97.9442C203.958 97.9442 203.913 97.9282 203.88 97.8909C203.796 97.8004 203.774 97.6407 203.835 97.5289C204.042 97.135 204.248 96.7357 204.438 96.3311C204.494 96.2139 204.611 96.1873 204.694 96.2672C204.784 96.347 204.806 96.5121 204.756 96.6292C204.561 97.0391 204.36 97.4491 204.142 97.8483C204.109 97.9069 204.058 97.9389 204.003 97.9442ZM205.314 95.1066C205.28 95.1066 205.241 95.0959 205.208 95.0693C205.118 94.9948 205.079 94.8404 205.129 94.7126C205.302 94.2707 205.47 93.8182 205.62 93.3657C205.665 93.2379 205.776 93.19 205.871 93.2539C205.966 93.3177 206.005 93.4775 205.966 93.5999C205.81 94.0631 205.643 94.5209 205.464 94.9735C205.431 95.0533 205.375 95.1012 205.314 95.1066ZM206.345 91.9868C206.318 91.9868 206.29 91.9814 206.267 91.9655C206.173 91.9122 206.122 91.7578 206.156 91.6247C206.284 91.1562 206.401 90.6718 206.502 90.1873C206.53 90.0542 206.635 89.9797 206.736 90.0276C206.836 90.0755 206.892 90.2192 206.864 90.3577C206.758 90.8528 206.635 91.3426 206.507 91.8217C206.479 91.9229 206.418 91.9814 206.345 91.9868ZM207.043 88.6806C207.026 88.6806 207.004 88.6807 206.987 88.67C206.886 88.6327 206.82 88.4943 206.842 88.3559C206.92 87.8661 206.987 87.3603 207.043 86.8599C207.059 86.7215 207.154 86.631 207.255 86.6576C207.355 86.6842 207.428 86.8226 207.411 86.961C207.355 87.4721 207.288 87.9885 207.21 88.489C207.193 88.6008 207.121 88.6753 207.043 88.6806ZM207.4 85.2521C207.388 85.2521 207.377 85.2521 207.366 85.2521C207.26 85.2361 207.188 85.103 207.193 84.9646C207.221 84.4588 207.238 83.9477 207.249 83.4366C207.249 83.2929 207.338 83.1864 207.439 83.1971C207.545 83.2077 207.623 83.3302 207.623 83.4739C207.617 83.9956 207.595 84.5227 207.567 85.0338C207.567 85.1509 207.489 85.2467 207.4 85.2521ZM207.439 81.7703H207.433C207.327 81.7703 207.243 81.6531 207.238 81.5094C207.221 81.0835 207.204 80.6523 207.177 80.2263C207.171 80.1412 207.165 80.056 207.16 79.9708C207.149 79.827 207.227 79.7046 207.327 79.6993C207.428 79.694 207.522 79.8004 207.528 79.9442C207.534 80.0294 207.539 80.1145 207.545 80.205C207.573 80.6416 207.595 81.0782 207.606 81.5094C207.612 81.6478 207.539 81.7649 207.439 81.7703ZM207.182 78.2831C207.087 78.2885 206.998 78.1873 206.981 78.0542C206.926 77.5538 206.859 77.0373 206.786 76.5262C206.764 76.3825 206.831 76.2547 206.931 76.2334C207.032 76.2121 207.132 76.308 207.154 76.4517C207.227 76.9681 207.299 77.4899 207.355 78.001C207.372 78.1447 207.299 78.2725 207.199 78.2885C207.188 78.2831 207.182 78.2831 207.182 78.2831ZM206.669 74.8333C206.58 74.8386 206.496 74.7534 206.474 74.6256C206.384 74.1305 206.284 73.6247 206.178 73.119C206.15 72.9806 206.206 72.8421 206.306 72.8049C206.407 72.7729 206.513 72.8528 206.541 72.9965C206.647 73.5023 206.753 74.0187 206.842 74.5192C206.87 74.6576 206.808 74.796 206.708 74.8226C206.691 74.8333 206.68 74.8333 206.669 74.8333ZM205.938 71.4473C205.855 71.4526 205.771 71.3781 205.743 71.2609C205.62 70.7711 205.492 70.276 205.358 69.7862C205.319 69.6531 205.369 69.5041 205.464 69.4615C205.559 69.4189 205.67 69.4881 205.704 69.6265C205.838 70.1216 205.972 70.6221 206.094 71.1172C206.128 71.2556 206.078 71.3994 205.977 71.4366C205.972 71.442 205.955 71.4473 205.938 71.4473ZM205.023 68.1358C204.945 68.1412 204.867 68.0773 204.834 67.9708C204.689 67.497 204.533 67.0125 204.376 66.5333C204.332 66.4003 204.371 66.2512 204.466 66.1979C204.56 66.1447 204.672 66.2086 204.717 66.3364C204.878 66.8208 205.035 67.3106 205.18 67.7898C205.219 67.9229 205.174 68.0719 205.079 68.1252C205.063 68.1305 205.04 68.1358 205.023 68.1358ZM203.941 64.9042C203.869 64.9096 203.791 64.851 203.757 64.7499C203.59 64.2867 203.411 63.8129 203.233 63.3497C203.183 63.2219 203.216 63.0675 203.305 63.0036C203.395 62.9397 203.512 62.993 203.562 63.1208C203.741 63.5893 203.919 64.0631 204.092 64.5316C204.137 64.6593 204.103 64.8137 204.008 64.8723C203.992 64.8989 203.969 64.9042 203.941 64.9042ZM202.725 61.7685C202.653 61.7738 202.586 61.7206 202.547 61.6301C202.357 61.1775 202.162 60.7197 201.967 60.2725C201.911 60.15 201.939 59.9903 202.028 59.9211C202.117 59.8519 202.229 59.8945 202.285 60.0223C202.486 60.4748 202.681 60.9326 202.87 61.3958C202.921 61.5236 202.893 61.678 202.803 61.7472C202.781 61.7578 202.753 61.7632 202.725 61.7685ZM201.381 58.7232C201.314 58.7286 201.247 58.6806 201.208 58.6008C201.002 58.1589 200.784 57.7117 200.572 57.2858C200.511 57.1633 200.533 57.0036 200.617 56.9291C200.701 56.8546 200.818 56.8865 200.879 57.0089C201.091 57.4402 201.309 57.8874 201.521 58.3346C201.576 58.457 201.554 58.6168 201.47 58.6913C201.437 58.7073 201.409 58.7179 201.381 58.7232ZM199.909 55.7791C199.847 55.7845 199.786 55.7419 199.741 55.6673C199.312 54.8688 199.044 54.4216 199.044 54.4162C198.977 54.3044 198.988 54.1394 199.066 54.0542C199.144 53.969 199.261 53.985 199.328 54.0968C199.34 54.1128 199.602 54.56 200.037 55.3745C200.098 55.4916 200.081 55.6514 200.003 55.7365C199.975 55.7632 199.942 55.7791 199.909 55.7791Z" fill="#96A7E2"/>
<path d="M69.5146 3.26935C69.3305 3.26935 69.1632 3.15755 69.113 2.98186C69.0516 2.76891 69.1799 2.55063 69.403 2.48674C69.9273 2.343 70.2062 2.27379 70.223 2.27379C70.4461 2.22055 70.6748 2.34832 70.7306 2.56128C70.7863 2.77423 70.6525 2.99251 70.4294 3.04575C70.4294 3.04575 70.1449 3.11496 69.6317 3.25338C69.5871 3.26403 69.5536 3.26935 69.5146 3.26935Z" fill="#ECF3FB"/>
<path d="M4.94378 47.8035C4.86569 47.8035 4.79318 47.7822 4.72066 47.745C4.52544 47.6278 4.46408 47.3829 4.58679 47.1966C4.888 46.7334 5.20036 46.2703 5.51272 45.8124C5.64102 45.6261 5.8976 45.5782 6.09283 45.6953C6.28805 45.8177 6.33825 46.0626 6.21554 46.249C5.90876 46.7015 5.60197 47.1593 5.30076 47.6172C5.22267 47.7343 5.08323 47.8035 4.94378 47.8035ZM7.29765 44.3909C7.21398 44.3909 7.13032 44.3696 7.0578 44.3217C6.86815 44.194 6.82353 43.9491 6.95182 43.768C7.27534 43.3262 7.61001 42.8736 7.94469 42.4264C8.07856 42.2454 8.34072 42.2081 8.53037 42.3359C8.72002 42.4637 8.75906 42.7139 8.62519 42.8949C8.29052 43.3368 7.96142 43.7787 7.64348 44.2206C7.55981 44.3324 7.43152 44.3909 7.29765 44.3909ZM9.81886 41.0955C9.72962 41.0955 9.64037 41.0688 9.56228 41.0156C9.37821 40.8825 9.34474 40.6323 9.48419 40.4566C9.8356 40.02 10.187 39.5888 10.544 39.1629C10.689 38.9925 10.9512 38.9606 11.1297 39.099C11.3082 39.2374 11.3416 39.4877 11.1966 39.658C10.8452 40.0786 10.4938 40.5098 10.148 40.9411C10.0699 41.0422 9.94715 41.0955 9.81886 41.0955ZM12.5018 37.9118C12.407 37.9118 12.3122 37.8798 12.2341 37.816C12.0556 37.6722 12.0333 37.422 12.1839 37.2516C12.552 36.8364 12.9258 36.4158 13.2995 36.0058C13.4501 35.8408 13.7178 35.8248 13.8907 35.9686C14.0636 36.1123 14.0804 36.3679 13.9298 36.5329C13.5561 36.9428 13.1823 37.3581 12.8198 37.768C12.7361 37.8639 12.619 37.9118 12.5018 37.9118ZM15.3243 34.8452C15.2238 34.8452 15.1234 34.808 15.0398 34.7388C14.8724 34.5897 14.8613 34.3342 15.0175 34.1744C15.4023 33.7751 15.7984 33.3705 16.1944 32.9766C16.3562 32.8168 16.6183 32.8115 16.7857 32.9606C16.953 33.115 16.9586 33.3652 16.8024 33.5249C16.4119 33.9189 16.0215 34.3182 15.6366 34.7121C15.5529 34.8026 15.4414 34.8452 15.3243 34.8452ZM18.2917 31.9011C18.1857 31.9011 18.0797 31.8639 17.9961 31.784C17.8343 31.6296 17.8343 31.3741 17.9961 31.2197C18.3977 30.8364 18.8104 30.4477 19.2232 30.0697C19.3905 29.9153 19.6527 29.9207 19.8145 30.0804C19.9762 30.2401 19.9706 30.4903 19.8033 30.6447C19.3961 31.0174 18.9889 31.4007 18.5873 31.784C18.5037 31.8639 18.3977 31.9011 18.2917 31.9011ZM21.3818 29.0795C21.2703 29.0795 21.1587 29.0369 21.0751 28.9517C20.9189 28.7867 20.93 28.5365 21.103 28.3874C21.5213 28.02 21.9508 27.6527 22.3803 27.2907C22.5532 27.1416 22.8154 27.1576 22.9715 27.3226C23.1277 27.4877 23.111 27.7379 22.9381 27.8869C22.5142 28.249 22.0902 28.6163 21.6719 28.9783C21.5827 29.0422 21.4823 29.0795 21.3818 29.0795ZM24.5891 26.375C24.472 26.375 24.3549 26.3271 24.2712 26.2312C24.1206 26.0609 24.1429 25.8106 24.3214 25.6669C24.7565 25.3155 25.2027 24.9588 25.6434 24.6181C25.8219 24.4797 26.084 24.501 26.2346 24.6713C26.3796 24.8417 26.3573 25.0919 26.1788 25.2357C25.7438 25.5764 25.3031 25.9278 24.868 26.2791C24.7844 26.343 24.6895 26.375 24.5891 26.375ZM27.908 23.7982C27.7853 23.7982 27.6626 23.745 27.5789 23.6438C27.4339 23.4681 27.4673 23.2179 27.6514 23.0848C28.0921 22.7547 28.5494 22.414 29.0124 22.0839C29.1965 21.9508 29.4586 21.9828 29.5981 22.1585C29.7375 22.3341 29.7041 22.5844 29.52 22.7175C29.0626 23.0475 28.6108 23.383 28.1702 23.713C28.0921 23.7716 27.9972 23.7982 27.908 23.7982ZM31.3272 21.3386C31.199 21.3386 31.0707 21.28 30.987 21.1735C30.8531 20.9925 30.8922 20.7476 31.0818 20.6145C31.5448 20.2951 32.0133 19.9757 32.4819 19.6616C32.6715 19.5338 32.9337 19.5764 33.0675 19.7574C33.2014 19.9384 33.1568 20.1886 32.9671 20.3164C32.5042 20.6252 32.0356 20.9446 31.5782 21.2641C31.4946 21.312 31.4109 21.3386 31.3272 21.3386ZM34.8357 18.9961C34.7019 18.9961 34.568 18.9322 34.4899 18.8204C34.3616 18.6394 34.4118 18.3892 34.6015 18.2667C35.0756 17.9633 35.5553 17.6598 36.035 17.3617C36.2302 17.2392 36.4868 17.2924 36.6151 17.4788C36.7434 17.6651 36.6876 17.91 36.4924 18.0325C36.0183 18.3306 35.5386 18.6341 35.07 18.9322C34.9975 18.9748 34.9138 18.9961 34.8357 18.9961ZM38.4279 16.776C38.2885 16.776 38.1546 16.7068 38.0709 16.5897C37.9482 16.4034 38.0096 16.1585 38.2048 16.0413C38.6901 15.7538 39.1809 15.4664 39.6662 15.1842C39.8614 15.0724 40.1236 15.131 40.2407 15.3173C40.3579 15.5036 40.2965 15.7538 40.1013 15.8656C39.616 16.1478 39.1251 16.4353 38.6454 16.7175C38.5785 16.7547 38.5004 16.776 38.4279 16.776ZM42.0926 14.6731C41.9476 14.6731 41.8081 14.6039 41.73 14.4761C41.6129 14.2845 41.6854 14.0396 41.8806 13.9331C42.3715 13.6616 42.8735 13.39 43.3755 13.1185C43.5763 13.0121 43.8329 13.0813 43.9445 13.2729C44.056 13.4646 43.9835 13.7095 43.7827 13.816C43.2863 14.0822 42.7898 14.3537 42.299 14.6252C42.2376 14.6518 42.1651 14.6731 42.0926 14.6731ZM45.8354 12.682C45.6848 12.682 45.5397 12.6074 45.4672 12.469C45.3557 12.2774 45.4338 12.0325 45.6401 11.926C46.1421 11.6704 46.6497 11.4149 47.1573 11.1593C47.3637 11.0582 47.6147 11.1327 47.7207 11.3297C47.8267 11.5267 47.7486 11.7663 47.5422 11.8674C47.0346 12.1176 46.527 12.3732 46.0306 12.6287C45.9692 12.666 45.9023 12.682 45.8354 12.682ZM49.6395 10.808C49.4833 10.808 49.3383 10.7281 49.2658 10.5844C49.1654 10.3874 49.249 10.1478 49.4554 10.0467C49.963 9.80709 50.4818 9.56219 51.0005 9.32794C51.2069 9.23211 51.4579 9.31729 51.5583 9.51427C51.6587 9.71126 51.5694 9.95083 51.3631 10.0467C50.8499 10.2809 50.3311 10.5205 49.8291 10.7601C49.7622 10.792 49.7008 10.808 49.6395 10.808ZM53.505 9.0511C53.3488 9.0511 53.1926 8.96591 53.1257 8.81685C53.0308 8.61454 53.1201 8.38029 53.3321 8.28978C53.8508 8.06618 54.3751 7.83726 54.8994 7.61898C55.1114 7.52847 55.3568 7.61898 55.4517 7.82128C55.5465 8.02359 55.4517 8.25784 55.2397 8.34835C54.721 8.56663 54.1966 8.79023 53.6835 9.01915C53.6221 9.03513 53.5607 9.0511 53.505 9.0511ZM57.4262 7.40602C57.2645 7.40602 57.1083 7.31552 57.0414 7.16112C56.9521 6.95882 57.0525 6.72457 57.2645 6.63938C57.7888 6.42643 58.3243 6.2188 58.8542 6.01649C59.0661 5.93663 59.3116 6.03246 59.4008 6.23477C59.4901 6.43708 59.3841 6.67133 59.1721 6.75651C58.6478 6.95882 58.1179 7.16645 57.5936 7.3794C57.5322 7.39537 57.4764 7.40602 57.4262 7.40602ZM61.4033 5.88872C61.2359 5.88872 61.0742 5.79289 61.0128 5.63317C60.9292 5.42554 61.0407 5.19662 61.2527 5.11676C61.7882 4.91977 62.3292 4.72812 62.8647 4.54178C63.0822 4.46725 63.3221 4.57372 63.4002 4.78135C63.4783 4.98899 63.3667 5.21791 63.1492 5.29245C62.6193 5.47878 62.0838 5.67044 61.5483 5.8621C61.4981 5.87807 61.4479 5.88872 61.4033 5.88872ZM65.4305 4.49919C65.2576 4.49919 65.0958 4.39271 65.0345 4.22767C64.962 4.02004 65.0791 3.79111 65.2966 3.7219C65.8489 3.54089 66.4011 3.37053 66.931 3.20549C67.1485 3.13628 67.3884 3.2534 67.4553 3.46104C67.5278 3.66867 67.4051 3.89759 67.1876 3.96148C66.6577 4.12119 66.1166 4.29688 65.5644 4.47257C65.5198 4.48854 65.4751 4.49919 65.4305 4.49919Z" fill="#96A7E2"/>
<path d="M3.21513 50.5672C3.14262 50.5672 3.07569 50.5512 3.00875 50.514C2.80795 50.4022 2.74101 50.1626 2.85257 49.9709C2.99202 49.7367 3.13146 49.5078 3.27649 49.2788C3.38805 49.0872 3.64463 49.0233 3.84544 49.1351C4.04624 49.2469 4.11317 49.4918 3.99604 49.6834C3.85659 49.9124 3.71714 50.1413 3.5777 50.3702C3.49961 50.498 3.36016 50.5672 3.21513 50.5672Z" fill="#ECF3FB"/>
<path d="M68.5735 38.8107C68.5172 38.8107 68.4608 38.8155 68.4045 38.8155C66.8623 32.0631 60.4219 27 52.711 27C44.9693 27 38.5033 32.1108 36.997 38.9062C31.9144 39.5551 28 43.6113 28 48.5217C28 53.8855 32.6676 58.2328 38.4265 58.2328C40.1326 58.2328 41.7363 57.851 43.1606 57.1734C44.7694 60.6045 48.443 63 52.7161 63C57.2812 63 61.1597 60.2656 62.5687 56.4576C64.2646 57.5742 66.3345 58.2328 68.5735 58.2328C74.3324 58.2328 79 53.8855 79 48.5217C78.9949 43.158 74.3273 38.8107 68.5735 38.8107Z" fill="#E3E3FF"/>
<path d="M179.548 105.455C179.485 105.455 179.426 105.46 179.367 105.46C177.669 97.7697 170.601 92 162.137 92C153.633 92 146.538 97.8178 144.88 105.56C139.302 106.299 135 110.919 135 116.513C135 122.62 140.126 127.572 146.447 127.572C148.317 127.572 150.083 127.134 151.646 126.364C153.412 130.27 157.446 133 162.137 133C167.15 133 171.411 129.886 172.96 125.546C174.825 126.819 177.098 127.567 179.553 127.567C185.874 127.567 191 122.615 191 116.509C191 110.403 185.874 105.455 179.548 105.455Z" fill="#E3E3FF"/>
<path d="M92.7246 55.4449L199.124 35L124.336 69.0748L92.7246 55.4449Z" fill="url(#paint0_linear_1474_40113)"/>
<path d="M199.124 35L175.33 94.7275L136.914 74.5485L199.124 35Z" fill="url(#paint1_linear_1474_40113)"/>
<path d="M124.336 69.0748L128.754 94.7275L136.913 74.5485L199.124 35L124.336 69.0748Z" fill="#2B2388"/>
<path d="M128.754 94.7278L151.864 82.4029L136.913 74.5488L128.754 94.7278Z" fill="#FF7A85"/>
<path d="M25.8045 144.427C6.30842 137.346 -4.40811 93.514 40.6988 99.2233C85.8057 104.933 35.7425 131.48 28.3745 107.38C21.0065 83.2795 55.2259 79.002 81.4823 91.3934C107.739 103.785 125.241 89.3271 125.241 89.3271" stroke="#023E8A" stroke-miterlimit="10" stroke-dasharray="12 12"/>
<defs>
<linearGradient id="paint0_linear_1474_40113" x1="199.126" y1="52.0385" x2="92.7223" y2="52.0385" gradientUnits="userSpaceOnUse">
<stop stop-color="#787CFF"/>
<stop offset="0.2729" stop-color="#7175FA"/>
<stop offset="0.6732" stop-color="#5F61EE"/>
<stop offset="1" stop-color="#4C4CE0"/>
</linearGradient>
<linearGradient id="paint1_linear_1474_40113" x1="199.126" y1="64.8629" x2="136.916" y2="64.8629" gradientUnits="userSpaceOnUse">
<stop stop-color="#787CFF"/>
<stop offset="0.2729" stop-color="#7175FA"/>
<stop offset="0.6732" stop-color="#5F61EE"/>
<stop offset="1" stop-color="#4C4CE0"/>
</linearGradient>
</defs>
</svg>
