<svg width="48" height="48" viewBox="0 0 48 48" fill="none" xmlns="http://www.w3.org/2000/svg">
<path d="M4.80078 4C4.80078 1.79086 6.59164 0 8.80078 0H28.8008L43.2008 14.4V44C43.2008 46.2091 41.4099 48 39.2008 48H8.80078C6.59164 48 4.80078 46.2091 4.80078 44V4Z" fill="url(#paint0_linear_1511_66175)"/>
<path d="M28.8008 0L43.2008 14.4H32.8008C30.5916 14.4 28.8008 12.6091 28.8008 10.4V0Z" fill="#EAECF0"/>
<path d="M29.6005 35.9996H30.4088C31.1857 35.9996 31.5742 35.9996 31.7883 35.8376C31.9749 35.6965 32.0903 35.4808 32.1043 35.2473C32.1203 34.9793 31.9048 34.656 31.4738 34.0096L29.0655 30.3971C28.7094 29.863 28.5314 29.5959 28.307 29.5029C28.1108 29.4215 27.8902 29.4215 27.694 29.5029C27.4696 29.5959 27.2916 29.863 26.9355 30.3971L26.3401 31.2902M29.6005 35.9996L23.4529 27.1198C23.0994 26.6091 22.9226 26.3537 22.7018 26.264C22.5086 26.1854 22.2924 26.1854 22.0992 26.264C21.8784 26.3537 21.7016 26.6091 21.3481 27.1198L16.5911 33.991C16.1406 34.6416 15.9154 34.9669 15.9283 35.2375C15.9394 35.4731 16.054 35.6918 16.2414 35.8351C16.4565 35.9996 16.8522 35.9996 17.6435 35.9996H29.6005ZM31.2005 23.9996C31.2005 25.3251 30.126 26.3996 28.8005 26.3996C27.475 26.3996 26.4005 25.3251 26.4005 23.9996C26.4005 22.6741 27.475 21.5996 28.8005 21.5996C30.126 21.5996 31.2005 22.6741 31.2005 23.9996Z" stroke="#344054" stroke-width="1.5" stroke-linecap="round" stroke-linejoin="round"/>
<defs>
<linearGradient id="paint0_linear_1511_66175" x1="24.0008" y1="0" x2="24.0008" y2="48" gradientUnits="userSpaceOnUse">
<stop stop-color="#F9FAFB"/>
<stop offset="1" stop-color="#EDF0F3"/>
</linearGradient>
</defs>
</svg>
