<svg width="48" height="49" viewBox="0 0 48 49" fill="none" xmlns="http://www.w3.org/2000/svg">
<rect y="0.5" width="48" height="48" rx="24" fill="#BECFE7" fill-opacity="0.2"/>
<path d="M33 26.25L32.1689 25.591C31.223 24.841 30.75 24.466 30.75 24C30.75 23.534 31.223 23.159 32.1689 22.409L33 21.75M15 21.75L15.8311 22.409C16.777 23.159 17.25 23.534 17.25 24C17.25 24.466 16.777 24.841 15.8311 25.591L15 26.25" stroke="#141B34" stroke-width="1.5" stroke-linecap="round" stroke-linejoin="round"/>
<path d="M26.5718 33L26.7282 31.9412C26.9062 30.7362 26.9951 30.1337 27.4019 29.8986C27.8087 29.6635 28.3744 29.8876 29.5058 30.3358L30.5 30.7296M21.4282 15L21.2718 16.0588C21.0938 17.2638 21.0049 17.8663 20.5981 18.1014C20.1913 18.3365 19.6256 18.1124 18.4942 17.6642L17.5 17.2704" stroke="#141B34" stroke-width="1.5" stroke-linecap="round" stroke-linejoin="round"/>
<path d="M17 30.7317L18.0703 30.3375C19.2884 29.8889 19.8975 29.6645 20.3352 29.8994C20.7729 30.1343 20.8684 30.7367 21.0594 31.9414L21.2272 33M31 17.2683L29.9297 17.6625C28.7116 18.1111 28.1025 18.3355 27.6648 18.1006C27.2271 17.8657 27.1316 17.2633 26.9406 16.0586L26.7728 15" stroke="#141B34" stroke-width="1.5" stroke-linecap="round" stroke-linejoin="round"/>
<path d="M31 24.0003H17M27.5 29.9998L20.5 18M27.5 18.0002L20.5 30" stroke="#141B34" stroke-width="1.5" stroke-linejoin="round"/>
</svg>
