<svg width="14" height="20" viewBox="0 0 14 20" fill="none" xmlns="http://www.w3.org/2000/svg">
<path d="M9.08268 7.49935C9.08268 8.64994 8.14994 9.58268 6.99935 9.58268C5.84876 9.58268 4.91602 8.64994 4.91602 7.49935C4.91602 6.34876 5.84876 5.41602 6.99935 5.41602C8.14994 5.41602 9.08268 6.34876 9.08268 7.49935Z" stroke="#0E294B" stroke-width="1.5"/>
<path d="M8.04718 14.5773C7.76612 14.848 7.39044 14.9993 6.99948 14.9993C6.60851 14.9993 6.23284 14.848 5.95177 14.5773C3.37793 12.0833 -0.0713261 9.2973 1.61077 5.25246C2.52027 3.06545 4.70347 1.66602 6.99948 1.66602C9.29548 1.66602 11.4787 3.06545 12.3882 5.25246C14.0682 9.29219 10.6274 12.0919 8.04718 14.5773Z" stroke="#0E294B" stroke-width="1.5"/>
<path d="M12 16.666C12 17.5865 9.76142 18.3327 7 18.3327C4.23858 18.3327 2 17.5865 2 16.666" stroke="#0E294B" stroke-width="1.5" stroke-linecap="round"/>
</svg>
