<svg width="24" height="25" viewBox="0 0 24 25" fill="none" xmlns="http://www.w3.org/2000/svg">
<path d="M7.5 5.5H16C16.8284 5.5 17.5 6.17157 17.5 7V8.5" stroke="white" stroke-width="1.5" stroke-linecap="round" stroke-linejoin="round"/>
<path d="M19.3284 21.3284L18.7981 20.7981L18.7981 20.7981L19.3284 21.3284ZM18.5 3.25C18.9142 3.25 19.25 2.91421 19.25 2.5C19.25 2.08579 18.9142 1.75 18.5 1.75V3.25ZM19.75 10.5V14.5H21.25V10.5H19.75ZM12.5 21.75H11.5V23.25H12.5V21.75ZM4.25 14.5V5.5H2.75V14.5H4.25ZM11.5 21.75C9.59318 21.75 8.23851 21.7484 7.21085 21.6102C6.20476 21.475 5.62511 21.2213 5.2019 20.7981L4.14124 21.8588C4.88961 22.6071 5.83855 22.9392 7.01098 23.0969C8.16182 23.2516 9.63558 23.25 11.5 23.25V21.75ZM2.75 14.5C2.75 16.3644 2.74841 17.8382 2.90313 18.989C3.06076 20.1614 3.39288 21.1104 4.14124 21.8588L5.2019 20.7981C4.77869 20.3749 4.52502 19.7952 4.38976 18.7892C4.25159 17.7615 4.25 16.4068 4.25 14.5H2.75ZM19.75 14.5C19.75 16.4068 19.7484 17.7615 19.6102 18.7892C19.475 19.7952 19.2213 20.3749 18.7981 20.7981L19.8588 21.8588C20.6071 21.1104 20.9392 20.1614 21.0969 18.989C21.2516 17.8382 21.25 16.3644 21.25 14.5H19.75ZM12.5 23.25C14.3644 23.25 15.8382 23.2516 16.989 23.0969C18.1614 22.9392 19.1104 22.6071 19.8588 21.8588L18.7981 20.7981C18.3749 21.2213 17.7952 21.475 16.7892 21.6102C15.7615 21.7484 14.4068 21.75 12.5 21.75V23.25ZM18.5 1.75H6.5V3.25H18.5V1.75ZM6.5 9.25H18.5V7.75H6.5V9.25ZM2.75 5.5C2.75 7.57107 4.42893 9.25 6.5 9.25V7.75C5.25736 7.75 4.25 6.74264 4.25 5.5H2.75ZM6.5 1.75C4.42893 1.75 2.75 3.42893 2.75 5.5H4.25C4.25 4.25736 5.25736 3.25 6.5 3.25V1.75ZM21.25 10.5C21.25 8.98122 20.0188 7.75 18.5 7.75V9.25C19.1904 9.25 19.75 9.80964 19.75 10.5H21.25Z" fill="white"/>
<path d="M15 13.5L9 13.5" stroke="white" stroke-width="1.5" stroke-linecap="round" stroke-linejoin="round"/>
<path d="M12 17.5L9 17.5" stroke="white" stroke-width="1.5" stroke-linecap="round" stroke-linejoin="round"/>
</svg>
