<svg width="48" height="49" viewBox="0 0 48 49" fill="none" xmlns="http://www.w3.org/2000/svg">
<rect y="0.5" width="48" height="48" rx="24" fill="#BECFE7" fill-opacity="0.2"/>
<path d="M16 19L16 33" stroke="#141B34" stroke-width="1.5" stroke-linecap="round" stroke-linejoin="round"/>
<path d="M23.7576 15.9086C20.4524 14.225 17.8513 15.2114 16.5543 16.2192C16.3205 16.4008 16.2036 16.4917 16.1018 16.6997C16 16.9077 16 17.1014 16 17.4888V26.7319C16.9697 25.6342 19.8788 23.9328 23.7576 25.9086C27.224 27.6744 30.1741 26.9424 31.5697 26.1795C31.7633 26.0737 31.8601 26.0207 31.9301 25.9028C32 25.7849 32 25.6569 32 25.4009V17.8739C32 17.0454 32 16.6311 31.8027 16.4811C31.6053 16.331 31.1436 16.459 30.2202 16.715C28.64 17.1532 26.3423 17.2253 23.7576 15.9086Z" stroke="#141B34" stroke-width="1.5" stroke-linecap="round" stroke-linejoin="round"/>
</svg>
