<svg width="24" height="24" viewBox="0 0 24 24" fill="none" xmlns="http://www.w3.org/2000/svg">
<path d="M2.45898 9C3.7364 4.94289 7.53607 2 12.0248 2C17.223 2 21.4971 5.94668 22 11L20 10.5929" stroke="#B7B8B9" stroke-width="1.5" stroke-linecap="round" stroke-linejoin="round"/>
<path d="M9.21154 9.21978L9.55455 9.88675H9.55455L9.21154 9.21978ZM10.3974 8.60989L10.0544 7.94292L10.0544 7.94292L10.3974 8.60989ZM13.6026 8.60989L13.9456 7.94292V7.94292L13.6026 8.60989ZM14.7885 9.21978L14.4455 9.88675V9.88675L14.7885 9.21978ZM9.21154 12.7802L9.55455 12.1133H9.55455L9.21154 12.7802ZM10.3974 13.3901L10.0544 14.0571H10.0544L10.3974 13.3901ZM13.6026 13.3901L13.9456 14.0571L13.9456 14.0571L13.6026 13.3901ZM14.7885 12.7802L14.4455 12.1133L14.4454 12.1133L14.7885 12.7802ZM16.25 14C16.25 14.4142 16.5858 14.75 17 14.75C17.4142 14.75 17.75 14.4142 17.75 14H16.25ZM9.55455 9.88675L10.7404 9.27686L10.0544 7.94292L8.86853 8.55281L9.55455 9.88675ZM13.2596 9.27686L14.4455 9.88675L15.1315 8.55281L13.9456 7.94292L13.2596 9.27686ZM8.86853 13.4472L10.0544 14.0571L10.7404 12.7231L9.55455 12.1133L8.86853 13.4472ZM13.9456 14.0571L15.1315 13.4472L14.4454 12.1133L13.2596 12.7231L13.9456 14.0571ZM10.0544 14.0571C10.4381 14.2544 10.7686 14.4251 11.0562 14.5422C11.3566 14.6645 11.6599 14.75 12 14.75V13.25C11.9234 13.25 11.8208 13.2339 11.6217 13.1529C11.4098 13.0666 11.1474 12.9324 10.7404 12.7231L10.0544 14.0571ZM13.2596 12.7231C12.8526 12.9324 12.5902 13.0666 12.3783 13.1529C12.1792 13.2339 12.0766 13.25 12 13.25V14.75C12.3401 14.75 12.6434 14.6645 12.9438 14.5422C13.2314 14.4251 13.5619 14.2544 13.9456 14.0571L13.2596 12.7231ZM14.4455 9.88675C15.2068 10.2783 15.6948 10.5318 16.004 10.7583C16.1515 10.8663 16.2137 10.9373 16.2383 10.9742C16.2536 10.997 16.25 10.9975 16.25 11H17.75C17.75 10.3211 17.3305 9.87047 16.8902 9.54806C16.4623 9.23467 15.8445 8.91952 15.1315 8.55281L14.4455 9.88675ZM15.1315 13.4472C15.8445 13.0805 16.4623 12.7653 16.8902 12.4519C17.3305 12.1295 17.75 11.6789 17.75 11H16.25C16.25 11.0025 16.2536 11.003 16.2383 11.0258C16.2137 11.0627 16.1515 11.1337 16.004 11.2417C15.6948 11.4682 15.2068 11.7217 14.4455 12.1133L15.1315 13.4472ZM10.7404 9.27686C11.1474 9.06757 11.4098 8.93337 11.6217 8.84713C11.8208 8.76611 11.9234 8.75 12 8.75V7.25C11.6599 7.25 11.3566 7.33554 11.0562 7.45781C10.7686 7.57487 10.4381 7.74562 10.0544 7.94292L10.7404 9.27686ZM13.9456 7.94292C13.5619 7.74562 13.2314 7.57487 12.9438 7.45781C12.6434 7.33554 12.3401 7.25 12 7.25V8.75C12.0766 8.75 12.1792 8.76611 12.3783 8.84713C12.5902 8.93337 12.8526 9.06757 13.2596 9.27686L13.9456 7.94292ZM8.86853 8.55281C8.15549 8.91952 7.53772 9.23467 7.10977 9.54806C6.66949 9.87047 6.25 10.3211 6.25 11H7.75C7.75 10.9975 7.74642 10.997 7.76166 10.9742C7.7863 10.9373 7.84852 10.8663 7.996 10.7583C8.30523 10.5318 8.79323 10.2783 9.55455 9.88675L8.86853 8.55281ZM9.55455 12.1133C8.79323 11.7217 8.30523 11.4682 7.996 11.2417C7.84852 11.1337 7.7863 11.0627 7.76166 11.0258C7.74642 11.003 7.75 11.0025 7.75 11H6.25C6.25 11.6789 6.66949 12.1295 7.10977 12.4519C7.53772 12.7653 8.15549 13.0805 8.86853 13.4472L9.55455 12.1133ZM14.25 15.4949C14.25 15.4225 14.2657 15.6002 13.8484 15.8424C13.4754 16.0589 12.8609 16.25 12 16.25V17.75C13.0721 17.75 13.9576 17.5134 14.6014 17.1398C15.2008 16.7919 15.75 16.217 15.75 15.4949H14.25ZM12 16.25C11.1391 16.25 10.5246 16.0589 10.1516 15.8424C9.73425 15.6002 9.74999 15.4225 9.74999 15.4949H8.24999C8.24999 16.217 8.79923 16.7919 9.39864 17.1398C10.0424 17.5134 10.9279 17.75 12 17.75V16.25ZM15.75 15.4949V12.6713H14.25V15.4949H15.75ZM9.74999 15.4949V12.6713H8.24999V15.4949H9.74999ZM16.25 11V14H17.75V11H16.25Z" fill="#B7B8B9"/>
<path d="M21.541 15C20.2636 19.0571 16.4639 22 11.9752 22C6.77702 22 2.50292 18.0533 1.99995 13L4 13.4071" stroke="#B7B8B9" stroke-width="1.5" stroke-linecap="round" stroke-linejoin="round"/>
</svg>
