<svg width="48" height="49" viewBox="0 0 48 49" fill="none" xmlns="http://www.w3.org/2000/svg">
<rect y="0.5" width="48" height="48" rx="24" fill="#FDA014" fill-opacity="0.1"/>
<path d="M17.3217 21.6829C19.7354 17.412 20.9422 15.2765 22.5983 14.7268C23.5093 14.4244 24.4907 14.4244 25.4017 14.7268C27.0578 15.2765 28.2646 17.412 30.6783 21.6829C33.092 25.9539 34.2988 28.0893 33.9368 29.8293C33.7376 30.7866 33.2469 31.6549 32.535 32.3097C31.241 33.5 28.8274 33.5 24 33.5C19.1726 33.5 16.759 33.5 15.465 32.3097C14.7531 31.6549 14.2624 30.7866 14.0632 29.8293C13.7012 28.0893 14.908 25.9539 17.3217 21.6829Z" stroke="#FDA014" stroke-width="1.5"/>
<path d="M24.2422 29V25C24.2422 24.5286 24.2422 24.2929 24.0957 24.1464C23.9493 24 23.7136 24 23.2422 24" stroke="#FDA014" stroke-width="1.5" stroke-linecap="round" stroke-linejoin="round"/>
<path d="M23.992 21H24.001" stroke="#FDA014" stroke-width="2" stroke-linecap="round" stroke-linejoin="round"/>
</svg>
